<?xml version="1.0" standalone="no"?>
<!DOCTYPE svg PUBLIC "-//W3C//DTD SVG 20010904//EN"
 "http://www.w3.org/TR/2001/REC-SVG-20010904/DTD/svg10.dtd">
<svg version="1.0" xmlns="http://www.w3.org/2000/svg"
 width="96.000000pt" height="96.000000pt" viewBox="0 0 96.000000 96.000000"
 preserveAspectRatio="xMidYMid meet">
<metadata>
Created by potrace 1.14, written by Peter Selinger 2001-2017
</metadata>
<g transform="translate(0.000000,96.000000) scale(0.100000,-0.100000)"
fill="#000000" stroke="none">
<path d="M202 906 c-9 -5 -44 -36 -79 -69 l-63 -61 0 -363 c0 -283 3 -363 13
-364 37 -3 635 -4 648 -1 12 3 15 17 14 65 l0 62 60 5 c55 5 60 7 59 28 -1 16
6 24 22 28 21 5 24 12 24 48 0 59 -18 80 -70 80 l-42 0 7 54 c4 30 9 66 12 81
14 77 -5 131 -47 131 -25 0 -26 9 -25 153 0 107 -2 127 -15 128 -93 6 -505 2
-518 -5z m508 -146 c0 -99 -3 -130 -12 -129 -41 5 -78 -27 -78 -69 l0 -28
-212 -1 c-255 -2 -238 -1 -238 -13 0 -6 87 -11 227 -12 208 -3 228 -5 231 -20
3 -17 -13 -18 -228 -18 -180 0 -231 -3 -228 -12 4 -10 60 -13 234 -13 210 0
229 -1 232 -17 4 -22 21 -20 -238 -22 -132 -1 -217 -5 -220 -11 -3 -6 80 -12
235 -15 233 -5 277 -9 186 -15 -24 -2 -48 -8 -54 -14 -7 -7 -77 -11 -194 -11
-115 0 -183 -4 -183 -10 0 -6 66 -10 179 -10 152 0 180 -2 185 -15 3 -9 0 -18
-7 -21 -7 -2 -88 -5 -180 -7 -105 -1 -166 -6 -165 -12 2 -6 68 -10 173 -10 94
0 173 -3 176 -8 3 -5 15 -10 25 -11 13 -2 19 -11 19 -27 0 -23 4 -24 68 -27
l67 -3 0 -54 0 -55 -309 0 c-238 0 -310 3 -313 13 -2 6 -4 161 -4 342 l1 330
68 3 67 3 0 64 0 65 245 0 245 0 0 -130z m-512 48 c-3 -20 -9 -23 -45 -23 -24
-1 -43 0 -43 2 0 2 19 21 43 43 37 36 42 38 45 20 2 -11 2 -30 0 -42z m577
-212 c19 -13 19 -23 -1 -161 -10 -69 -24 -79 -95 -66 -4 0 -12 30 -18 66 -23
130 -23 141 -6 159 20 20 94 22 120 2z m95 -275 c0 -18 -9 -19 -155 -19 -113
1 -155 4 -155 13 0 6 3 15 7 18 3 4 73 7 155 7 139 0 148 -1 148 -19z m5 -51
c-3 -6 -50 -10 -106 -10 -54 0 -99 -4 -99 -9 0 -14 19 -17 93 -16 57 1 67 -2
67 -16 0 -15 -13 -17 -115 -16 -104 1 -115 3 -115 19 0 10 3 17 8 17 19 -3 33
2 27 11 -3 6 -22 10 -41 10 -19 0 -34 5 -34 10 0 6 60 10 161 10 104 0 158 -3
154 -10z"/>
<path d="M212 725 c-53 -45 -44 -128 19 -160 67 -35 144 16 141 93 -3 80 -98
119 -160 67z m113 -20 c62 -62 -4 -156 -83 -118 -72 35 -41 142 41 143 10 0
29 -11 42 -25z"/>
<path d="M249 706 c-13 -6 -28 -24 -33 -39 -9 -23 -6 -31 16 -53 32 -33 79
-27 97 12 23 52 -30 105 -80 80z m45 -22 c25 -9 20 -53 -6 -64 -31 -12 -63 22
-48 51 11 20 27 23 54 13z"/>
<path d="M181 212 c-6 -2 -11 -8 -11 -13 0 -5 64 -9 145 -9 90 0 145 4 145 10
0 6 -6 11 -12 11 -32 3 -258 4 -267 1z"/>
<path d="M665 580 c-9 -14 4 -108 16 -116 13 -8 14 10 5 69 -3 22 -2 37 4 37
6 0 10 5 10 10 0 13 -27 13 -35 0z"/>
<path d="M680 436 c0 -8 5 -18 10 -21 6 -3 10 3 10 14 0 12 -4 21 -10 21 -5 0
-10 -6 -10 -14z"/>
</g>
</svg>
